<?xml version="1.0" standalone="no"?>
<!DOCTYPE svg PUBLIC "-//W3C//DTD SVG 20010904//EN"
 "http://www.w3.org/TR/2001/REC-SVG-20010904/DTD/svg10.dtd">
<svg version="1.0" xmlns="http://www.w3.org/2000/svg"
 width="300.000000pt" height="71.000000pt" viewBox="0 0 300.000000 71.000000"
 preserveAspectRatio="xMidYMid meet">
<metadata>
Created by potrace 1.10, written by Peter Selinger 2001-2011
</metadata>
<g transform="translate(0.000000,71.000000) scale(0.100000,-0.100000)"
fill="#000000" stroke="none">
<path d="M150 664 l0 -44 39 0 c47 0 52 6 45 51 -6 32 -9 35 -45 36 l-39 2 0
-45z"/>
<path d="M260 665 l0 -45 40 0 c40 0 40 0 40 40 0 25 -5 40 -12 41 -7 0 -25 3
-40 5 -27 5 -28 3 -28 -41z"/>
<path d="M360 665 l0 -45 40 0 40 0 0 45 0 45 -40 0 -40 0 0 -45z"/>
<path d="M470 681 c0 -16 -3 -36 -6 -45 -5 -13 2 -16 41 -16 l46 0 -3 43 c-3
41 -4 42 -40 45 -36 3 -38 2 -38 -27z"/>
<path d="M570 665 l0 -45 40 0 40 0 0 45 0 45 -40 0 -40 0 0 -45z"/>
<path d="M1480 665 l0 -45 40 0 40 0 0 45 0 45 -40 0 -40 0 0 -45z"/>
<path d="M2100 665 l0 -45 40 0 40 0 0 45 0 45 -40 0 -40 0 0 -45z"/>
<path d="M2290 665 l0 -45 40 0 40 0 0 45 0 45 -40 0 -40 0 0 -45z"/>
<path d="M2397 673 c-8 -47 -3 -53 44 -53 l39 0 0 45 0 45 -39 0 c-36 0 -39
-2 -44 -37z"/>
<path d="M50 560 c0 -40 0 -40 40 -40 40 0 40 0 40 40 0 40 0 40 -40 40 -40 0
-40 0 -40 -40z"/>
<path d="M155 560 l0 -40 42 0 43 0 0 40 0 40 -43 0 -42 0 0 -40z"/>
<path d="M568 560 l-4 -40 43 0 43 0 0 40 c0 40 0 40 -39 40 -38 0 -39 -1 -43
-40z"/>
<path d="M670 560 c0 -40 0 -40 40 -40 40 0 40 0 40 40 0 40 0 40 -40 40 -40
0 -40 0 -40 -40z"/>
<path d="M1480 560 c0 -40 0 -40 40 -40 40 0 40 0 40 40 0 40 0 40 -40 40 -40
0 -40 0 -40 -40z"/>
<path d="M1580 560 l0 -40 45 0 45 0 0 40 0 40 -45 0 -45 0 0 -40z"/>
<path d="M1995 560 l0 -40 42 0 43 0 0 40 0 40 -43 0 -42 0 0 -40z"/>
<path d="M2100 560 c0 -40 0 -40 40 -40 40 0 40 0 40 40 0 40 0 40 -40 40 -40
0 -40 0 -40 -40z"/>
<path d="M2290 560 c0 -40 0 -40 40 -40 40 0 40 0 40 40 0 40 0 40 -40 40 -40
0 -40 0 -40 -40z"/>
<path d="M2390 560 l0 -40 45 0 45 0 0 40 0 40 -45 0 -45 0 0 -40z"/>
<path d="M50 460 c0 -40 0 -40 40 -40 40 0 40 0 40 40 0 40 0 40 -40 40 -40 0
-40 0 -40 -40z"/>
<path d="M155 460 l0 -40 42 0 43 0 0 40 0 40 -43 0 -42 0 0 -40z"/>
<path d="M1480 460 c0 -40 0 -40 40 -40 40 0 40 0 40 40 0 40 0 40 -40 40 -40
0 -40 0 -40 -40z"/>
<path d="M1580 460 l0 -40 44 0 43 0 0 40 0 40 -43 0 -44 0 0 -40z"/>
<path d="M1690 460 c0 -40 0 -40 40 -40 40 0 40 0 40 40 0 40 0 40 -40 40 -40
0 -40 0 -40 -40z"/>
<path d="M1890 460 l0 -40 45 0 45 0 0 40 0 40 -45 0 -45 0 0 -40z"/>
<path d="M2000 460 c0 -40 0 -40 40 -40 40 0 40 0 40 40 0 40 0 40 -40 40 -40
0 -40 0 -40 -40z"/>
<path d="M2100 460 c0 -40 0 -40 40 -40 40 0 40 0 40 40 0 40 0 40 -40 40 -40
0 -40 0 -40 -40z"/>
<path d="M2290 460 c0 -40 0 -40 40 -40 40 0 40 0 40 40 0 40 0 40 -40 40 -40
0 -40 0 -40 -40z"/>
<path d="M2390 460 l0 -40 45 0 45 0 0 40 0 40 -45 0 -45 0 0 -40z"/>
<path d="M33 376 l-21 -22 25 -22 c15 -14 38 -22 59 -22 38 0 44 14 14 30 -11
6 -20 15 -20 19 0 5 9 11 20 14 34 9 22 27 -17 26 -25 -1 -46 -9 -60 -23z"/>
<path d="M138 375 c-25 -22 -26 -24 -9 -30 11 -3 22 -12 25 -20 3 -10 20 -15
46 -15 47 0 52 12 13 29 -27 12 -27 13 -8 27 10 8 22 14 27 14 4 0 8 5 8 10 0
21 -74 10 -102 -15z"/>
<path d="M860 390 c0 -6 -11 -16 -25 -22 l-25 -11 31 -19 c20 -12 45 -18 68
-16 l36 3 -28 15 -28 14 25 13 c38 20 32 33 -14 33 -22 0 -40 -5 -40 -10z"/>
<path d="M945 376 l-21 -22 23 -17 c12 -9 39 -17 60 -16 38 0 38 0 15 16 l-23
16 28 23 28 23 -45 0 c-33 -1 -50 -7 -65 -23z"/>
<path d="M1053 376 c-22 -22 -22 -22 -2 -39 12 -10 36 -17 62 -17 l42 1 -29
16 c-28 15 -29 16 -11 29 10 8 22 14 27 14 4 0 8 5 8 10 0 20 -74 9 -97 -14z"/>
<path d="M1155 376 l-21 -22 23 -18 c15 -11 36 -16 61 -14 l37 3 -28 15 -28
14 25 13 c37 19 32 33 -11 32 -25 -1 -45 -9 -58 -23z"/>
<path d="M1255 376 l-21 -22 23 -18 c16 -12 37 -16 66 -14 l42 4 -30 13 c-29
12 -29 13 -11 27 11 8 23 14 28 14 4 0 8 5 8 10 0 6 -19 10 -42 9 -31 -1 -49
-8 -63 -23z"/>
<path d="M1480 390 c0 -5 -12 -15 -26 -23 l-25 -13 25 -12 c14 -6 26 -16 26
-22 0 -5 18 -10 40 -10 47 0 51 13 13 34 l-28 14 28 11 c39 15 33 31 -13 31
-22 0 -40 -4 -40 -10z"/>
<path d="M1565 376 l-20 -21 23 -22 c17 -17 34 -23 65 -23 l42 1 -29 23 c-28
24 -29 24 -7 35 32 18 25 31 -16 30 -25 -1 -45 -8 -58 -23z"/>
<path d="M1674 377 l-22 -23 25 -22 c15 -14 38 -22 59 -22 41 0 44 12 7 29
-27 12 -27 13 -8 27 10 8 22 14 27 14 4 0 8 5 8 10 0 20 -74 10 -96 -13z"/>
<path d="M1774 377 l-21 -20 24 -23 c16 -16 35 -24 58 -24 42 0 45 12 8 29
-27 12 -27 13 -8 27 10 8 22 14 27 14 4 0 8 5 8 10 0 18 -74 9 -96 -13z"/>
<path d="M1875 376 l-20 -21 23 -22 c17 -17 34 -23 65 -23 l42 1 -29 23 c-28
24 -29 24 -7 35 32 18 25 31 -16 30 -25 -1 -45 -8 -58 -23z"/>
<path d="M1984 377 l-22 -23 25 -22 c15 -14 38 -22 59 -22 41 0 44 12 7 29
-27 12 -27 13 -8 27 10 8 22 14 27 14 4 0 8 5 8 10 0 20 -74 10 -96 -13z"/>
<path d="M2084 377 l-21 -20 24 -23 c16 -16 35 -24 58 -24 41 0 46 16 9 32
l-25 12 25 13 c37 19 32 33 -11 32 -23 -1 -46 -9 -59 -22z"/>
<path d="M2290 390 c0 -5 -12 -15 -26 -23 l-25 -13 25 -12 c14 -6 26 -16 26
-22 0 -5 18 -10 40 -10 47 0 51 13 13 34 l-28 14 28 11 c39 15 33 31 -13 31
-22 0 -40 -4 -40 -10z"/>
<path d="M2380 377 l-25 -22 23 -22 c16 -16 35 -23 62 -23 47 0 51 12 13 29
-27 12 -27 13 -8 27 10 8 22 14 27 14 4 0 8 5 8 10 0 20 -74 10 -100 -13z"/>
<path d="M50 250 c0 -40 0 -40 40 -40 40 0 40 0 40 40 0 40 0 40 -40 40 -40 0
-40 0 -40 -40z"/>
<path d="M155 250 l0 -40 42 0 43 0 0 40 0 40 -43 0 -42 0 0 -40z"/>
<path d="M1480 250 c0 -40 0 -40 40 -40 40 0 40 0 40 40 0 40 0 40 -40 40 -40
0 -40 0 -40 -40z"/>
<path d="M1580 250 l0 -40 45 0 45 0 0 40 0 40 -45 0 -45 0 0 -40z"/>
<path d="M1790 250 c0 -40 0 -40 40 -40 40 0 40 0 40 40 0 40 0 40 -40 40 -40
0 -40 0 -40 -40z"/>
<path d="M1995 250 l-1 -40 43 0 43 0 0 40 0 40 -42 0 -43 0 0 -40z"/>
<path d="M2100 250 c0 -40 0 -40 40 -40 40 0 40 0 40 40 0 40 0 40 -40 40 -40
0 -40 0 -40 -40z"/>
<path d="M2290 250 c0 -40 0 -40 40 -40 40 0 40 0 40 40 0 40 0 40 -40 40 -40
0 -40 0 -40 -40z"/>
<path d="M2390 250 l0 -40 45 0 45 0 0 40 0 40 -45 0 -45 0 0 -40z"/>
<path d="M50 147 l0 -43 40 4 c39 4 40 5 40 43 0 39 0 39 -40 39 l-40 0 0 -43z"/>
<path d="M155 150 l0 -40 42 0 43 0 0 40 0 40 -43 0 -42 0 0 -40z"/>
<path d="M570 150 c0 -40 0 -40 40 -40 40 0 40 0 40 40 0 40 0 40 -40 40 -40
0 -40 0 -40 -40z"/>
<path d="M670 151 c0 -38 1 -39 40 -43 l40 -4 0 43 0 43 -40 0 c-40 0 -40 0
-40 -39z"/>
<path d="M1480 150 c0 -40 0 -40 40 -40 40 0 40 0 40 40 0 40 0 40 -40 40 -40
0 -40 0 -40 -40z"/>
<path d="M1580 150 l0 -40 45 0 45 0 0 40 0 40 -45 0 -45 0 0 -40z"/>
<path d="M1999 188 c0 -2 -1 -20 -2 -41 l-2 -37 43 0 42 0 0 40 c0 40 0 40
-40 40 -22 0 -40 -1 -41 -2z"/>
<path d="M2100 150 c0 -40 0 -40 40 -40 40 0 40 0 40 40 0 40 0 40 -40 40 -40
0 -40 0 -40 -40z"/>
<path d="M2290 150 c0 -40 0 -40 40 -40 40 0 40 0 40 40 0 40 0 40 -40 40 -40
0 -40 0 -40 -40z"/>
<path d="M2390 150 l0 -40 45 0 45 0 0 40 0 40 -45 0 -45 0 0 -40z"/>
<path d="M150 45 l0 -45 39 0 c36 0 39 2 44 37 8 47 3 53 -44 53 l-39 0 0 -45z"/>
<path d="M260 45 l0 -45 40 0 40 0 0 45 0 45 -40 0 -40 0 0 -45z"/>
<path d="M360 45 l0 -45 40 0 40 0 0 45 0 45 -40 0 -40 0 0 -45z"/>
<path d="M464 74 c3 -9 6 -29 6 -45 0 -26 3 -29 34 -29 35 0 46 15 46 68 0 20
-5 22 -46 22 -38 0 -45 -3 -40 -16z"/>
<path d="M570 45 l0 -45 40 0 40 0 0 45 0 45 -40 0 -40 0 0 -45z"/>
<path d="M1480 45 l0 -45 40 0 40 0 0 45 0 45 -40 0 -40 0 0 -45z"/>
<path d="M1580 45 l0 -45 45 0 45 0 0 45 0 45 -45 0 -45 0 0 -45z"/>
<path d="M1999 86 c-3 -3 -3 -23 -1 -45 4 -40 5 -41 43 -41 l39 0 0 45 0 45
-38 0 c-21 0 -41 -2 -43 -4z"/>
<path d="M2100 45 l0 -45 40 0 40 0 0 45 0 45 -40 0 -40 0 0 -45z"/>
<path d="M2290 44 l0 -44 40 0 40 0 0 44 0 44 -40 0 -40 1 0 -45z"/>
<path d="M2396 82 c-3 -5 -3 -25 1 -45 5 -34 8 -37 38 -37 31 0 33 2 37 41 2
22 2 42 -1 45 -8 8 -70 4 -75 -4z"/>
<path d="M2500 45 l0 -45 40 0 40 0 0 45 0 45 -40 0 -40 0 0 -45z"/>
<path d="M2600 45 l0 -45 40 0 40 0 0 45 0 45 -40 0 -40 0 0 -45z"/>
<path d="M2704 59 c3 -17 6 -38 6 -45 0 -9 12 -14 35 -14 30 0 35 3 35 23 0
12 3 32 6 45 6 21 3 22 -41 22 l-47 0 6 -31z"/>
<path d="M2810 45 l0 -45 40 0 40 0 0 45 0 45 -40 0 -40 0 0 -45z"/>
<path d="M2910 45 l0 -45 40 0 40 0 0 45 0 45 -40 0 -40 0 0 -45z"/>
</g>
</svg>
